<svg xmlns="http://www.w3.org/2000/svg" width="89" height="20" fill="none"><path fill="#fff" d="M4.266 4.9h1.716v7.462h4.134V14h-5.85V4.9Zm10.33 0h6.084v1.638h-2.184v5.824h2.184V14h-6.084v-1.638h2.184V6.538h-2.184V4.9ZM27.5 9.398h3.9V14h-1.56v-1.014h-.234a1.729 1.729 0 0 1-.598.858c-.294.225-.736.338-1.326.338-.416 0-.806-.078-1.17-.234a2.65 2.65 0 0 1-.949-.689 3.472 3.472 0 0 1-.637-1.144c-.156-.46-.234-.992-.234-1.599V8.384c0-.59.082-1.11.247-1.56a3.42 3.42 0 0 1 .702-1.157 2.91 2.91 0 0 1 1.08-.702 3.713 3.713 0 0 1 1.377-.247c.52 0 .984.087 1.391.26.407.165.754.399 1.04.702.286.295.503.646.65 1.053.148.399.221.828.221 1.287v.156h-1.716V8.02c0-.546-.143-.958-.429-1.235-.277-.286-.671-.429-1.183-.429-.485 0-.884.165-1.196.494-.312.32-.468.875-.468 1.664v1.924c0 1.404.572 2.106 1.716 2.106.512 0 .897-.134 1.157-.403.269-.277.403-.646.403-1.105H27.5V9.398ZM35.373 4.9h1.716v3.718h2.938V4.9h1.716V14h-1.716v-3.744H37.09V14h-1.716V4.9Zm10.369 0h6.552v1.638h-2.418V14H48.16V6.538h-2.418V4.9ZM82.545 6.455c-.9-.9-2.17-1.481-3.545-1.481a4.934 4.934 0 0 0-3.545 1.481c-.9.9-1.481 2.17-1.481 3.545 0 1.376.582 2.646 1.481 3.545.9.9 2.17 1.482 3.545 1.482a4.935 4.935 0 0 0 3.545-1.482c.9-.9 1.481-2.17 1.481-3.545a4.934 4.934 0 0 0-1.48-3.545ZM79 3.413a.7.7 0 0 0 .688-.688V.688A.7.7 0 0 0 79 0a.7.7 0 0 0-.688.688v2.037a.7.7 0 0 0 .688.688ZM84.635 5.344l1.455-1.455a.67.67 0 0 0 0-.952.67.67 0 0 0-.952 0l-1.456 1.455a.67.67 0 0 0 0 .952c.239.264.662.264.953 0ZM88.312 9.312h-2.037a.7.7 0 0 0-.688.688.7.7 0 0 0 .688.688h2.037A.7.7 0 0 0 89 10a.7.7 0 0 0-.688-.688ZM84.609 14.656a.67.67 0 0 0-.953 0 .67.67 0 0 0 0 .952l1.455 1.456a.67.67 0 0 0 .953 0 .67.67 0 0 0 0-.953l-1.455-1.455ZM79 16.587a.7.7 0 0 0-.688.688v2.037A.7.7 0 0 0 79 20a.7.7 0 0 0 .688-.688v-2.037a.7.7 0 0 0-.688-.688ZM73.365 14.656l-1.455 1.455a.67.67 0 0 0 0 .953.67.67 0 0 0 .953 0l1.454-1.456a.67.67 0 0 0 0-.952c-.238-.264-.66-.264-.952 0ZM72.413 10a.7.7 0 0 0-.688-.688h-2.037A.7.7 0 0 0 69 10a.7.7 0 0 0 .688.688h2.037a.7.7 0 0 0 .688-.688ZM73.365 5.344a.67.67 0 0 0 .953 0 .67.67 0 0 0 0-.952l-1.456-1.455a.67.67 0 0 0-.952 0 .67.67 0 0 0 0 .952l1.455 1.455Z"/></svg>