<svg xmlns="http://www.w3.org/2000/svg" width="78" height="20" fill="none"><path fill="#697C9A" d="M3.258 4.9H6.56c1.127 0 1.963.264 2.51.793.545.52.818 1.33.818 2.431v2.652c0 1.1-.273 1.915-.819 2.444-.546.52-1.382.78-2.509.78H3.258v-1.651h.858V6.538h-.858V4.9Zm3.302 7.462c.598 0 1.014-.139 1.248-.416.243-.286.364-.728.364-1.326V8.124c0-.52-.121-.914-.364-1.183-.234-.269-.65-.403-1.248-.403h-.728v5.824h.728Zm12.085-.312h-3.094L15.11 14h-1.794l2.171-9.1h3.224l2.171 9.1h-1.794l-.442-1.95Zm-2.73-1.638h2.353l-1.053-4.654h-.234l-1.066 4.654ZM30.64 14h-1.716v-2.73a.747.747 0 0 0-.169-.507c-.104-.13-.282-.195-.533-.195h-1.976V14H24.53V4.9h3.484c.468 0 .88.065 1.235.195.355.13.65.312.884.546.243.225.425.49.546.793.13.303.195.628.195.975v.312a2 2 0 0 1-.299 1.053c-.2.32-.507.568-.923.741v.234c.303.035.542.152.715.351.182.2.273.45.273.754V14Zm-4.394-5.07h1.638c.416 0 .732-.095.95-.286.216-.2.324-.477.324-.832v-.156c0-.303-.108-.563-.325-.78-.217-.225-.533-.338-.949-.338h-1.638V8.93ZM36.757 14h-1.716V4.9h1.716v3.731h.377L39.539 4.9h1.937v.078l-2.808 4.355v.234l2.964 4.355V14h-2.015l-2.483-3.731h-.377V14ZM77.513 11.397a.7.7 0 0 0-.588.128 7.496 7.496 0 0 1-2.276 1.335 7.101 7.101 0 0 1-2.583.463 7.505 7.505 0 0 1-5.32-2.209 7.568 7.568 0 0 1-2.199-5.342c0-.873.154-1.72.41-2.49a6.905 6.905 0 0 1 1.227-2.21.657.657 0 0 0-.102-.924c-.18-.128-.384-.18-.589-.128-2.173.59-4.066 1.9-5.421 3.646A10.158 10.158 0 0 0 58 9.83c0 2.8 1.125 5.342 2.967 7.19a10.025 10.025 0 0 0 7.16 2.98c2.353 0 4.527-.822 6.266-2.183a10.13 10.13 0 0 0 3.58-5.624.623.623 0 0 0-.46-.796Z"/></svg>