<svg xmlns="http://www.w3.org/2000/svg" width="126" height="21" fill="none"><path fill="#222731" d="M10.284 18.128h-.468c-.139.295-.312.58-.52.858-.19.26-.45.494-.78.702a3.86 3.86 0 0 1-1.144.494c-.433.121-.962.182-1.586.182a5.965 5.965 0 0 1-2.236-.416 5.395 5.395 0 0 1-1.794-1.274c-.503-.572-.901-1.265-1.196-2.08-.277-.815-.416-1.75-.416-2.808v-.468c0-1.04.147-1.967.442-2.782.312-.815.728-1.5 1.248-2.054a5.426 5.426 0 0 1 1.846-1.3 5.78 5.78 0 0 1 2.236-.442c1.04 0 1.863.2 2.47.598.607.381 1.083.927 1.43 1.638h.468V1.8h3.276V20h-3.276v-1.872Zm-3.432-.884c1.023 0 1.846-.32 2.47-.962.641-.659.962-1.517.962-2.574v-.312c0-1.057-.32-1.907-.962-2.548-.624-.659-1.447-.988-2.47-.988-1.023 0-1.855.32-2.496.962-.624.624-.936 1.482-.936 2.574v.312c0 1.092.312 1.959.936 2.6.641.624 1.473.936 2.496.936Zm12.982-2.626c.017.381.104.737.26 1.066.173.312.399.59.676.832.295.225.624.407.988.546.381.121.78.182 1.196.182.815 0 1.439-.139 1.872-.416.433-.295.745-.641.936-1.04l2.808 1.56c-.156.33-.373.676-.65 1.04a4.613 4.613 0 0 1-1.092.962c-.433.295-.97.537-1.612.728-.624.19-1.36.286-2.21.286-.97 0-1.855-.156-2.652-.468a5.997 5.997 0 0 1-2.08-1.352c-.572-.59-1.023-1.309-1.352-2.158-.312-.85-.468-1.811-.468-2.886v-.156c0-.988.165-1.89.494-2.704a6.293 6.293 0 0 1 1.404-2.08 6.251 6.251 0 0 1 2.054-1.326 6.608 6.608 0 0 1 2.548-.494c1.11 0 2.063.2 2.86.598.797.381 1.456.875 1.976 1.482.52.59.901 1.248 1.144 1.976.243.71.364 1.404.364 2.08v1.742h-9.464Zm3.094-4.914c-.832 0-1.508.217-2.028.65-.52.416-.858.901-1.014 1.456h6.084c-.104-.607-.433-1.11-.988-1.508-.537-.399-1.222-.598-2.054-.598Zm9.03-2.6h3.536l3.042 11.336h.468l3.042-11.336h3.536L41.89 20h-6.24L31.958 7.104Zm24.786-3.848c0-.33.06-.641.182-.936.138-.312.32-.572.546-.78.225-.225.485-.399.78-.52a2.23 2.23 0 0 1 .962-.208c.676 0 1.248.243 1.716.728.485.468.728 1.04.728 1.716 0 .347-.07.667-.208.962a2.369 2.369 0 0 1-.52.78 2.336 2.336 0 0 1-.78.546 2.434 2.434 0 0 1-.936.182c-.347 0-.668-.06-.962-.182a2.748 2.748 0 0 1-1.326-1.326 2.5 2.5 0 0 1-.182-.962Zm-9.36 3.848h3.042V4.452c0-.745.251-1.37.754-1.872.502-.52 1.126-.78 1.872-.78h2.444v3.12h-1.092c-.468 0-.702.26-.702.78v1.404h7.15V20h-3.276v-9.776h-3.874V20h-3.276v-9.776h-3.042v-3.12ZM67.984 20h-3.276V7.104h3.276v1.924h.468a3.422 3.422 0 0 1 1.43-1.69c.658-.399 1.43-.598 2.314-.598.624 0 1.204.104 1.742.312.554.19 1.04.494 1.456.91.416.416.736.945.962 1.586.242.641.364 1.404.364 2.288V20h-3.276v-7.332c0-.919-.226-1.638-.676-2.158-.434-.537-1.066-.806-1.898-.806-.971 0-1.699.33-2.184.988-.468.641-.702 1.508-.702 2.6V20Zm21.9-1.872h-.468c-.14.295-.312.58-.52.858-.191.26-.451.494-.78.702a3.86 3.86 0 0 1-1.144.494c-.434.121-.962.182-1.586.182a5.965 5.965 0 0 1-2.236-.416 5.395 5.395 0 0 1-1.794-1.274c-.503-.572-.902-1.265-1.196-2.08-.278-.815-.416-1.75-.416-2.808v-.468c0-1.04.147-1.967.442-2.782.312-.815.728-1.5 1.248-2.054a5.426 5.426 0 0 1 1.846-1.3 5.78 5.78 0 0 1 2.236-.442c1.04 0 1.863.2 2.47.598.606.381 1.083.927 1.43 1.638h.468V1.8h3.276V20h-3.276v-1.872Zm-3.432-.884c1.022 0 1.846-.32 2.47-.962.64-.659.962-1.517.962-2.574v-.312c0-1.057-.321-1.907-.962-2.548-.624-.659-1.448-.988-2.47-.988-1.023 0-1.855.32-2.496.962-.624.624-.936 1.482-.936 2.574v.312c0 1.092.312 1.959.936 2.6.64.624 1.473.936 2.496.936Zm12.981-2.626c.018.381.104.737.26 1.066.174.312.399.59.677.832.294.225.624.407.988.546.381.121.78.182 1.196.182.814 0 1.438-.139 1.872-.416.433-.295.745-.641.936-1.04l2.808 1.56a5.95 5.95 0 0 1-.65 1.04 4.64 4.64 0 0 1-1.092.962c-.434.295-.971.537-1.612.728-.624.19-1.361.286-2.21.286-.971 0-1.855-.156-2.652-.468a5.997 5.997 0 0 1-2.08-1.352c-.572-.59-1.023-1.309-1.352-2.158-.313-.85-.469-1.811-.469-2.886v-.156c0-.988.165-1.89.495-2.704a6.293 6.293 0 0 1 1.403-2.08 6.248 6.248 0 0 1 2.055-1.326 6.604 6.604 0 0 1 2.548-.494c1.109 0 2.062.2 2.86.598.797.381 1.456.875 1.976 1.482.52.59.901 1.248 1.144 1.976.242.71.364 1.404.364 2.08v1.742h-9.465Zm3.095-4.914c-.832 0-1.508.217-2.028.65-.52.416-.859.901-1.014 1.456h6.084c-.104-.607-.434-1.11-.988-1.508-.538-.399-1.222-.598-2.054-.598Zm9.315-2.6h5.46v1.872h.468c.243-.71.65-1.257 1.222-1.638.59-.399 1.292-.598 2.106-.598 1.283 0 2.314.407 3.094 1.222.78.797 1.17 2.02 1.17 3.666v.572l-3.38.312v-.364c0-.71-.182-1.274-.546-1.69-.364-.433-.91-.65-1.638-.65-.728 0-1.3.251-1.716.754-.416.503-.624 1.222-.624 2.158v4.16h2.964V20h-8.892v-3.12h2.652v-6.656h-2.34v-3.12Z"/></svg>