<svg xmlns="http://www.w3.org/2000/svg" width="20" height="20" fill="none"><g fill="#4B6A9B" fill-rule="evenodd" clip-rule="evenodd"><path d="M10.858 1.558 1.7.167A1.477 1.477 0 0 0 .517.492 1.49 1.49 0 0 0 0 1.608v17.559c0 .458.375.833.833.833h2.709v-4.375c0-.808.65-1.458 1.458-1.458h2.083c.809 0 1.459.65 1.459 1.458V20h3.541V3a1.46 1.46 0 0 0-1.225-1.442ZM4.583 12.292h-1.25a.625.625 0 0 1 0-1.25h1.25a.625.625 0 0 1 0 1.25Zm-1.25-2.5h1.25a.625.625 0 0 0 0-1.25h-1.25a.625.625 0 0 0 0 1.25Zm1.25-2.5h-1.25a.625.625 0 0 1 0-1.25h1.25a.625.625 0 0 1 0 1.25Zm-1.25-2.5h1.25a.625.625 0 0 0 0-1.25h-1.25a.625.625 0 0 0 0 1.25Zm5.417 7.5H7.5a.625.625 0 0 1 0-1.25h1.25a.625.625 0 0 1 0 1.25Zm-1.25-2.5h1.25a.625.625 0 0 0 0-1.25H7.5a.625.625 0 0 0 0 1.25Zm1.25-2.5H7.5a.625.625 0 0 1 0-1.25h1.25a.625.625 0 0 1 0 1.25Zm-1.25-2.5h1.25a.625.625 0 0 0 0-1.25H7.5a.625.625 0 0 0 0 1.25ZM12.917 7.793l5.933 1.242c.68.15 1.15.737 1.15 1.425v8.082A1.46 1.46 0 0 1 18.542 20h-5.625V7.793Zm2.708 9.707h1.25a.625.625 0 0 0 0-1.25h-1.25a.625.625 0 0 0 0 1.25Zm1.25-2.5h-1.25a.625.625 0 0 1 0-1.25h1.25a.625.625 0 0 1 0 1.25Zm-1.25-2.5h1.25a.625.625 0 0 0 0-1.25h-1.25a.625.625 0 0 0 0 1.25Z"/></g></svg>