<svg xmlns="http://www.w3.org/2000/svg" width="20" height="18" fill="none"><path fill="#4B6A9B" d="M20 2.799a8.55 8.55 0 0 1-2.363.647 4.077 4.077 0 0 0 1.804-2.266 8.194 8.194 0 0 1-2.6.993A4.099 4.099 0 0 0 9.75 4.977c0 .324.027.637.095.934-3.409-.166-6.425-1.8-8.451-4.288A4.128 4.128 0 0 0 .83 3.695c0 1.42.732 2.679 1.821 3.408A4.05 4.05 0 0 1 .8 6.598v.045a4.12 4.12 0 0 0 3.285 4.028 4.094 4.094 0 0 1-1.075.135c-.262 0-.527-.015-.776-.07.531 1.624 2.038 2.818 3.831 2.856a8.238 8.238 0 0 1-5.084 1.75A7.67 7.67 0 0 1 0 15.284a11.544 11.544 0 0 0 6.29 1.84c7.545 0 11.67-6.25 11.67-11.667 0-.182-.006-.357-.015-.53A8.18 8.18 0 0 0 20 2.798Z"/></svg>