<svg xmlns="http://www.w3.org/2000/svg" width="20" height="20" fill="none"><g fill="#4B6A9B"><path d="M7.404 5.012c-2.355 2.437-1.841 6.482.857 8.273.089.06.207.048.283-.027.568-.555 1.049-1.092 1.47-1.776a.213.213 0 0 0-.084-.3A2.744 2.744 0 0 1 8.88 10.1a2.64 2.64 0 0 1-.225-1.803c.169-.815 1.044-1.573 1.712-2.274l-.004-.002 2.504-2.555a2.568 2.568 0 0 1 3.648-.019 2.6 2.6 0 0 1 .037 3.666l-1.517 1.56a.266.266 0 0 0-.06.272c.35 1.013.435 2.441.201 3.52-.006.03.031.05.053.028l3.228-3.295c2.062-2.105 2.044-5.531-.04-7.615a5.416 5.416 0 0 0-7.691.04L7.417 4.998l-.013.014Z"/><path d="m13.439 13.75.006-.003c.659-1.204.788-2.586.48-3.933l-.002.002-.001-.001a5.434 5.434 0 0 0-2.19-3.124.3.3 0 0 0-.332.015c-.554.448-1.096 1.021-1.453 1.754a.243.243 0 0 0 .097.317c.414.24.789.593 1.04 1.061.196.33.388.958.263 1.632-.116.894-1.019 1.714-1.736 2.453-.546.559-1.935 1.974-2.49 2.542a2.6 2.6 0 0 1-3.666.037 2.6 2.6 0 0 1-.038-3.665l1.521-1.565A.266.266 0 0 0 5 11.004c-.338-1.036-.43-2.432-.217-3.51.006-.03-.031-.049-.053-.027l-3.179 3.245c-2.083 2.127-2.066 5.588.04 7.693 2.125 2.083 5.57 2.048 7.653-.078.723-.81 3.821-3.678 4.195-4.578Z"/></g></svg>